<?xml version="1.0" standalone="no"?>
<!DOCTYPE svg PUBLIC "-//W3C//DTD SVG 20010904//EN"
 "http://www.w3.org/TR/2001/REC-SVG-20010904/DTD/svg10.dtd">
<svg version="1.0" xmlns="http://www.w3.org/2000/svg"
 width="591.000000pt" height="591.000000pt" viewBox="0 0 591.000000 591.000000"
 preserveAspectRatio="xMidYMid meet">
<metadata>
Created by potrace 1.11, written by Peter Selinger 2001-2013
</metadata>
<g transform="translate(0.000000,591.000000) scale(0.100000,-0.100000)"
fill="#000000" stroke="none">
<path d="M2685 5790 c-22 -4 -68 -11 -103 -14 -34 -4 -86 -11 -115 -17 -29 -5
-65 -12 -82 -15 -67 -12 -236 -57 -334 -90 -427 -144 -788 -368 -1106 -688
-142 -143 -150 -152 -247 -277 -201 -258 -399 -648 -478 -944 -12 -44 -24 -89
-27 -100 -13 -48 -43 -204 -49 -250 -3 -27 -7 -52 -9 -55 -11 -17 -20 -203
-20 -390 0 -288 10 -371 80 -692 16 -74 81 -279 105 -333 5 -11 21 -49 36 -85
32 -80 113 -240 172 -339 183 -311 459 -616 755 -835 407 -301 902 -492 1409
-544 148 -15 561 -7 664 12 11 2 39 7 64 10 361 50 779 211 1113 429 500 328
911 841 1107 1382 17 50 36 99 41 110 4 11 14 40 20 65 7 25 14 50 15 55 2 6
5 19 7 30 3 11 10 40 17 65 7 25 14 54 16 65 15 69 25 126 30 170 4 28 8 53
10 56 9 17 19 209 19 389 0 180 -7 310 -19 375 -2 11 -7 40 -10 65 -10 71 -15
96 -52 248 -89 369 -273 747 -518 1062 -103 134 -330 363 -466 470 -402 319
-916 538 -1395 595 -27 4 -61 9 -75 12 -40 9 -531 11 -575 3z"/>
</g>
</svg>
